<?xml version="1.0" encoding="utf-8"?>
<!-- Generator: Adobe Illustrator 22.0.1, SVG Export Plug-In . SVG Version: 6.00 Build 0)  -->
<svg version="1.1" id="图层_1" xmlns="http://www.w3.org/2000/svg" xmlns:xlink="http://www.w3.org/1999/xlink" x="0px" y="0px"
	 viewBox="0 0 200 200" style="enable-background:new 0 0 200 200;" xml:space="preserve">
<style type="text/css">
	.st0{fill:#FF6600;}
	.st1{fill:#3366CC;}
</style>
<path class="st0" d="M80.2,42l-9.8,15.8l21.4,1.6l15.9,6.6V48.5"/>
<path class="st0" d="M109.2,66.6c23.7,14.1,36.5,42.6,29.5,70.8c-8.6,34.5-43.4,55.5-77.9,46.9c-34.5-8.6-55.5-43.4-46.9-77.9
	C20.5,79.6,43,61,68.8,58c7.4-0.9,15.2-0.4,22.9,1.5C97.9,61,103.7,63.4,109.2,66.6z"/>
<path class="st1" d="M76.3,190.6c-5.6,0-11.2-0.7-16.6-2C23,179.4,0.5,142.1,9.6,105.3C13,91.5,20.5,79.3,31.3,70
	c10.5-9.1,23.3-14.7,37.1-16.3c8.1-0.9,16.4-0.4,24.4,1.6c6.6,1.6,12.8,4.2,18.6,7.7c12.4,7.4,22.4,18.8,28,32.1
	c5.9,13.8,7.1,28.8,3.4,43.4C135.3,169.1,107.9,190.6,76.3,190.6L76.3,190.6z M76.2,61.9c-2.3,0-4.6,0.1-6.9,0.4
	c-24.7,2.9-45.3,21-51.3,45.1c-8,32.1,11.7,64.7,43.7,72.6c4.7,1.2,9.6,1.8,14.5,1.8c27.6,0,51.5-18.7,58.1-45.5
	c6.3-25.4-5-52.6-27.5-65.9c-5.1-3-10.5-5.3-16.3-6.7C86,62.5,81.1,61.9,76.2,61.9L76.2,61.9z M178,72.9c-17.7,0-32.1-14.4-32.2-32
	c0-2.4,1.9-4.4,4.4-4.4c0,0,0,0,0,0h0c2.4,0,4.4,1.9,4.4,4.4c0,12.9,10.5,23.3,23.4,23.3h0.1c2.4,0,4.4,2,4.4,4.4
	c0,2.4-2,4.4-4.4,4.4L178,72.9L178,72.9z"/>
<path class="st1" d="M94.3,46.5c-2.4,0-4.4-2-4.4-4.4V42c0-17.7,14.4-32.1,32-32.2h0.1c17.7,0,32.1,14.4,32.2,32
	c0,2.4-1.9,4.4-4.4,4.4c0,0,0,0,0,0h0c-2.4,0-4.4-1.9-4.4-4.4c0-12.9-10.6-23.4-23.5-23.3c-12.9,0-23.3,10.5-23.3,23.4v0.1
	C98.7,44.5,96.8,46.5,94.3,46.5z M175.4,112.3c-2.4,0-4.4-2-4.4-4.4c0-1.3,0.6-2.5,1.5-3.3c1.2-1,2.4-2.2,3.3-3.5
	c6.8-8.7,6.5-21.1-0.6-29.5c-1.6-1.8-1.3-4.6,0.5-6.2c1.8-1.6,4.6-1.3,6.2,0.5l0,0c9.8,11.6,10.1,28.6,0.8,40.5
	c-1.4,1.8-2.9,3.4-4.6,4.8C177.4,111.9,176.4,112.3,175.4,112.3z"/>
<path class="st1" d="M109.2,70.9c-2.2,0-4.1-1.7-4.3-3.9l-1.6-15.2l-22.5-5.6l-8.5,12.7c-1.3,2-4.1,2.5-6.1,1.2
	c-2-1.3-2.5-4.1-1.2-6.1l10.2-15.3c1-1.5,2.9-2.3,4.7-1.8l28.4,7.1c1.8,0.4,3.1,2,3.3,3.8l1.9,18.3c0.2,2.4-1.5,4.5-3.9,4.8
	C109.5,70.9,109.4,70.9,109.2,70.9L109.2,70.9z M35.6,100.7c-2.4,0-4.4-2-4.4-4.4c0-0.8,0.2-1.6,0.6-2.2c1.6-2.6,3.3-5,5.3-7.3
	c1.6-1.8,4.4-2,6.2-0.4c1.8,1.6,2,4.4,0.4,6.2c-1.6,1.9-3.1,3.9-4.4,6C38.5,99.8,37.1,100.7,35.6,100.7z M63.6,168.1
	c-0.4,0-0.7,0-1.1-0.1c-12.9-3.2-23.8-11.2-30.7-22.6c-6.9-11.4-8.9-24.8-5.7-37.7c0.6-2.3,2.9-3.8,5.3-3.2l0,0
	c2.3,0.6,3.8,3,3.2,5.3c0,0,0,0,0,0c-2.6,10.6-1,21.7,4.7,31.1c5.7,9.4,14.6,16,25.3,18.7c2.3,0.6,3.8,2.9,3.2,5.3
	C67.4,166.7,65.7,168.1,63.6,168.1L63.6,168.1z M190.6,116.7c1.6,0.8,2.4,2.6,2.1,4.3c-0.3,1.7-1.8,3.1-3.5,3.2l-3.7,0.4l1.7,3.3
	c0.8,1.6,0.4,3.5-0.8,4.7c-1.3,1.2-3.2,1.4-4.8,0.5l-3.2-1.9l-0.6,3.7c-0.3,1.9-2,3.4-3.9,3.4c-1.6,0-3-0.9-3.7-2.4l-1.5-3.4
	l-2.7,2.6c-1.3,1.3-3.2,1.5-4.8,0.7c-1.6-0.9-2.4-2.6-2-4.4l0.8-3.7l-3.7,0.6c-1.8,0.3-3.5-0.7-4.2-2.3c-0.8-1.6-0.4-3.5,1-4.7
	l2.8-2.5l-3.3-1.7c-1.6-0.8-2.4-2.6-2.1-4.3c0.3-1.7,1.8-3.1,3.6-3.2l3.7-0.4L156,106c-0.8-1.6-0.5-3.5,0.8-4.7
	c1.3-1.2,3.2-1.4,4.8-0.5l3.2,1.9l0.6-3.7c0.4-2.2,2.4-3.7,4.6-3.3c1.3,0.2,2.5,1.1,3,2.3l1.5,3.4l2.7-2.6c1.3-1.2,3.2-1.5,4.7-0.7
	c1.6,0.8,2.4,2.6,2,4.4l-0.8,3.7l3.7-0.6c1.8-0.3,3.5,0.7,4.2,2.3c0.8,1.6,0.4,3.5-1,4.7l-2.8,2.5L190.6,116.7L190.6,116.7z
	 M176.9,118c-0.3-0.5-0.5-1-0.6-1.6c-0.1-0.6,0-1.2,0.2-1.7c-0.5-0.2-1-0.5-1.4-1c-0.4-0.4-0.7-0.9-0.9-1.5c-0.5,0.1-1.1,0.2-1.7,0
	c-0.6-0.1-1.1-0.3-1.6-0.7c-0.4,0.4-0.8,0.8-1.4,1c-0.5,0.3-1.1,0.4-1.7,0.4c0,0.6-0.2,1.1-0.5,1.6c-0.3,0.5-0.7,1-1.1,1.3
	c0.3,0.5,0.5,1,0.6,1.6c0.1,0.6,0,1.2-0.2,1.7c0.5,0.2,1,0.5,1.4,1c0.4,0.4,0.7,0.9,0.9,1.5c0.3-0.1,0.6-0.1,0.9-0.1
	c0.3,0,0.5,0,0.8,0.1c0.6,0.1,1.1,0.3,1.6,0.7c0.4-0.4,0.8-0.8,1.4-1c0.5-0.3,1.1-0.4,1.7-0.4C175.4,119.7,176,118.7,176.9,118
	L176.9,118z"/>
<path class="st0" d="M176.3,116.4c0.1,0.6,0.3,1.1,0.6,1.6c-0.9,0.7-1.5,1.8-1.6,2.9c-0.6,0-1.1,0.1-1.7,0.4c-0.5,0.3-1,0.6-1.4,1
	c-0.5-0.3-1-0.6-1.6-0.7c-0.3,0-0.5-0.1-0.8-0.1c-0.3,0-0.6,0-0.9,0.1c-0.2-0.5-0.5-1-0.9-1.5c-0.4-0.4-0.9-0.8-1.4-1
	c0.2-0.5,0.2-1.1,0.2-1.7c-0.1-0.6-0.3-1.1-0.6-1.6c0.5-0.3,0.8-0.8,1.1-1.3c0.3-0.5,0.4-1.1,0.5-1.6c0.6,0,1.1-0.1,1.7-0.4
	c0.5-0.3,1-0.6,1.4-1c0.5,0.3,1,0.6,1.6,0.7c0.6,0.1,1.2,0.1,1.7,0c0.2,0.5,0.5,1,0.9,1.5c0.4,0.4,0.9,0.8,1.4,1
	C176.3,115.2,176.2,115.8,176.3,116.4L176.3,116.4z"/>
</svg>
