<?xml version="1.0" standalone="no"?><!DOCTYPE svg PUBLIC "-//W3C//DTD SVG 1.1//EN" "http://www.w3.org/Graphics/SVG/1.1/DTD/svg11.dtd"><svg t="1521894384315" class="icon" style="" viewBox="0 0 1024 1024" version="1.1" xmlns="http://www.w3.org/2000/svg" p-id="643" xmlns:xlink="http://www.w3.org/1999/xlink" width="200" height="200"><defs><style type="text/css"></style></defs><path d="M299.1 79.8v863.7" fill="#73D8A5" p-id="644"></path><path d="M299.1 959.5c-8.8 0-16-7.2-16-16V79.9c0-8.8 7.2-16 16-16s16 7.2 16 16v863.6c0 8.8-7.2 16-16 16z" fill="#4C4848" p-id="645"></path><path d="M726 326.3L299.1 572.8v-493z" fill="#EE655F" p-id="646"></path><path d="M299.1 588.8c-2.8 0-5.5-0.7-8-2.1-5-2.9-8-8.1-8-13.9v-493c0-5.7 3-11 8-13.9 4.9-2.8 11.1-2.8 16 0L734 312.5c5 2.9 8 8.1 8 13.9s-3 11-8 13.9L307.1 586.7c-2.5 1.4-5.3 2.1-8 2.1z m16-481.2v437.6l379-218.8-379-218.8z" fill="#4C4848" p-id="647"></path></svg>
