<svg
        xmlns="http://www.w3.org/2000/svg"
        xmlns:xlink="http://www.w3.org/1999/xlink"
        width="27px" height="25px">
    <path fill-rule="evenodd"  stroke-width="1px" stroke="rgb(29, 122, 217)" fill-opacity="0" fill="rgb(96, 67, 96)"
          d="M22.272,9.506 L22.295,5.302 C22.295,5.302 23.495,5.321 23.495,6.470 L23.497,9.519 L22.272,9.506 ZM16.851,3.501 L20.514,3.503 C21.676,3.503 21.695,4.727 21.695,4.727 L16.844,4.738 L16.851,3.501 ZM21.676,10.100 L21.088,10.091 L21.089,8.900 L20.445,8.900 L20.445,10.100 L19.857,10.100 L19.857,9.500 L19.251,9.500 L19.251,10.100 L18.668,10.100 L18.668,8.903 L18.062,8.904 L18.052,10.109 L17.475,10.123 L17.475,9.523 L16.849,9.524 L16.830,10.105 L16.262,10.087 L16.262,8.925 L15.637,8.925 L15.637,10.106 L15.049,10.107 L15.049,9.507 L14.424,9.507 L14.424,10.108 L13.836,10.109 L13.837,8.910 L13.211,8.910 L13.211,10.110 L12.624,10.111 L12.624,9.512 L11.998,9.512 L11.998,10.112 L11.392,10.113 L11.430,8.895 L10.819,8.895 L10.786,5.905 C10.786,5.574 11.057,5.305 11.392,5.305 L21.676,5.302 L21.676,10.100 ZM11.363,16.096 L11.363,14.891 L11.951,14.890 L11.951,15.490 L12.601,15.489 L12.601,14.914 L13.164,14.913 L13.163,16.112 L13.789,16.112 L13.789,14.912 L14.376,14.911 L14.376,15.510 L15.001,15.510 L15.001,14.910 L15.608,14.909 L15.570,16.102 L16.214,16.101 L16.214,19.092 C16.214,19.423 15.943,19.692 15.608,19.692 L5.324,19.695 L5.324,14.897 L5.912,14.906 L5.911,16.122 L6.555,16.122 L6.555,14.897 L7.143,14.897 L7.143,15.497 L7.749,15.497 L7.749,14.897 L8.332,14.897 L8.332,16.118 L8.938,16.118 L8.948,14.913 L9.525,14.899 L9.525,15.523 L10.151,15.523 L10.170,14.892 L10.738,14.910 L10.738,16.097 L11.363,16.096 ZM8.952,5.308 L8.953,5.927 L10.159,5.927 L10.159,6.483 L9.553,6.483 L9.554,7.101 L10.161,7.101 L10.162,7.707 L8.949,7.707 L8.950,8.300 L10.163,8.300 L10.164,8.881 L9.558,8.881 L9.558,9.500 L10.165,9.500 L10.166,10.100 L8.935,10.112 L8.935,10.724 L10.167,10.730 L10.168,11.305 L9.562,11.305 L9.562,11.930 L10.169,11.930 L10.170,12.498 L8.939,12.480 L8.939,13.098 L10.171,13.098 L10.172,13.679 L9.566,13.679 L9.567,14.298 L5.349,14.297 L5.324,5.027 C5.324,4.396 6.202,4.128 6.536,4.128 L9.568,4.128 C10.149,4.128 10.175,4.702 10.175,4.702 L10.139,5.308 L8.952,5.308 ZM10.175,21.495 L6.486,21.494 C5.324,21.494 5.305,20.319 5.305,20.319 L10.181,20.309 L10.175,21.495 ZM3.505,18.527 L3.503,15.528 L4.677,15.516 L4.705,19.695 C4.705,19.695 3.505,19.676 3.505,18.527 ZM18.073,19.713 L18.073,19.095 L16.841,19.095 L16.840,18.514 L17.446,18.514 L17.446,17.895 L16.839,17.895 L16.838,17.315 L18.051,17.315 L18.050,16.696 L16.837,16.696 L16.836,16.115 L17.442,16.115 L17.442,15.497 L16.835,15.497 L16.834,14.897 L18.065,14.935 L18.065,14.298 L16.833,14.316 L16.832,13.716 L17.438,13.716 L17.438,13.117 L16.831,13.117 L16.830,12.498 L18.061,12.517 L18.061,11.899 L16.829,11.899 L16.828,11.318 L17.433,11.318 L17.433,10.699 L21.651,10.699 L21.676,19.745 C21.676,20.551 20.975,20.894 20.463,20.894 L17.432,20.894 C16.851,20.894 16.825,20.294 16.825,20.294 L16.861,19.713 L18.073,19.713 Z"/>
</svg>