<svg
        xmlns="http://www.w3.org/2000/svg"
        xmlns:xlink="http://www.w3.org/1999/xlink"
        width="24px" height="20px">
    <path fill-rule="evenodd"  stroke-width="1px" stroke="rgb(29, 122, 217)" fill-opacity="0" fill="rgb(255, 255, 255)"
          d="M19.969,6.000 L4.031,6.000 C3.738,6.000 3.500,5.776 3.500,5.500 L3.500,4.000 C3.500,3.724 3.738,3.500 4.031,3.500 L19.969,3.500 C20.262,3.500 20.500,3.724 20.500,4.000 L20.500,5.500 C20.500,5.776 20.262,6.000 19.969,6.000 ZM5.094,6.500 L18.906,6.500 C19.200,6.500 19.437,6.724 19.437,7.000 L19.437,16.000 C19.437,16.276 19.200,16.500 18.906,16.500 L5.094,16.500 C4.800,16.500 4.562,16.276 4.562,16.000 L4.562,7.000 C4.562,6.724 4.800,6.500 5.094,6.500 ZM9.344,10.500 L14.656,10.500 L14.656,8.500 L9.344,8.500 L9.344,10.500 Z"/>
</svg>